# xmcd
# 
# Track frame offsets:
#     150
#     20670
#     41937
#     62155
#     82187
#     106630
#     125512
#     147715
#     169835
#     192455
#     209317
# 
# Disc length: 3036
# 
# Revision: 3
# Processed by: cddbd v1.5.2PL0 Copyright (c) Steve Scherf et al.
# Submitted via: BonkEnc v1.0.8
# 
DISCID=a90bda0b
DTITLE=ZARD - 止まっていた時計が今動き出した
DYEAR=2004
DGENRE=Being GIZA
TTITLE0=明日を夢見て
TTITLE1=時間の翼
TTITLE2=もっと近くで君の横顔見ていたい
TTITLE3=pray
TTITLE4=出逢いそして別れ
TTITLE5=止まっていた時計が今動き出した
TTITLE6=瞳閉じて
TTITLE7=さわやかな君の気持ち (Album Ver.)
TTITLE8=愛であなたを救いましょう
TTITLE9=天使のような笑顔で
TTITLE10=悲しいほど 今日は雨でも
EXTD=YEAR: 2004
EXTT0=
EXTT1=
EXTT2=
EXTT3=
EXTT4=
EXTT5=
EXTT6=
EXTT7=
EXTT8=
EXTT9=
EXTT10=
PLAYORDER=
